<?xml version="1.0" encoding="UTF-8"?>
<!DOCTYPE svg PUBLIC "-//W3C//DTD SVG 1.1//EN" "http://www.w3.org/Graphics/SVG/1.1/DTD/svg11.dtd">
<!-- Creator: CorelDRAW -->
<svg xmlns="http://www.w3.org/2000/svg" xml:space="preserve" width="54.013mm" height="16.6268mm" version="1.1" style="shape-rendering:geometricPrecision; text-rendering:geometricPrecision; image-rendering:optimizeQuality; fill-rule:evenodd; clip-rule:evenodd"
viewBox="0 0 2589.01 796.97"
 xmlns:xlink="http://www.w3.org/1999/xlink"
 xmlns:xodm="http://www.corel.com/coreldraw/odm/2003">
 <defs>
  <style type="text/css">
   <![CDATA[
    .fil0 {fill:#0068AD;fill-rule:nonzero}
   ]]>
  </style>
 </defs>
 <g id="Слой_x0020_1">
  <metadata id="CorelCorpID_0Corel-Layer"/>
  <path class="fil0" d="M807.11 289.62c25.63,-9.28 47.57,-25.77 65.85,-49.5 18.28,-23.74 27.41,-49.76 27.41,-78.14 0,-49.62 -13.65,-88.63 -40.91,-116.99 -28.91,-29.98 -69.28,-44.99 -121.07,-44.99l-214.87 0 0 161.98 165.78 0 0 49.09 -225.08 0 0 -31.88 -116.14 0 0 211.95 116.14 0 0 -23 225.08 0 0 49.08 -165.78 0 0 161.99 224.7 0c50.71,0 90.38,-13.22 119.03,-39.68 28.63,-26.45 42.95,-64.48 42.95,-114.12 0,-30.53 -11.47,-59.18 -34.38,-85.9 -20.18,-24 -43.07,-40.64 -68.71,-49.9z"/>
  <polygon class="fil0" points="309.53,417.22 219.2,417.22 219.2,161.99 309.53,161.99 309.53,0 -0,0 -0,578.51 309.53,578.51 "/>
  <path class="fil0" d="M1676.07 47.46c-30.01,-31.64 -68.99,-47.46 -117,-47.46l-529.27 0 0 161.99 691.25 0c0,-44.73 -14.98,-82.9 -44.98,-114.53z"/>
  <path class="fil0" d="M1721.06 211.07l-520.31 0 0 157.08 309.24 0 0 49.08 -480.18 0 0 161.99 529.27 0c50.71,0 90.4,-13.78 119.03,-41.31 28.64,-27.55 42.95,-67.78 42.95,-120.69l0 -206.16z"/>
  <polygon class="fil0" points="2377.94,0 2225.79,161.99 2073.62,0 1862.54,0 1862.54,579.21 2073.62,579.21 2073.62,228.25 2225.79,393.51 2377.94,228.25 2377.94,579.21 2589.01,579.21 2589.01,0 "/>
  <path class="fil0" d="M1.59 664.33l55.36 0c13.58,0 23.15,3.38 29.47,9.71 4.31,4.33 6.93,10.03 6.93,17.74 0,12.5 -7.08,19.9 -16.66,24.08 13.12,4.31 21.45,11.71 21.45,26.67 0,18.53 -15.12,29.78 -40.89,29.78l-55.66 0 0 -107.97zm47.96 43.04l0 0c9.11,0 14.2,-3.1 14.2,-9.73 0,-5.87 -4.64,-9.25 -13.58,-9.25l-19.45 0 0 18.98 18.82 0zm4.33 40.87l0 0c9.1,0 14.34,-3.55 14.34,-10.18 0,-5.87 -4.62,-9.71 -14.64,-9.71l-22.84 0 0 19.88 23.15 0z"/>
  <path class="fil0" d="M110.19 688.86l29.3 0 0 26.22 14.19 0c19.75,0 34.41,9.55 34.41,28.38 0,18.06 -12.95,28.85 -33.16,28.85l-44.74 0 0 -83.45zm38.4 62.78l0 0c7.1,0 11.26,-3.09 11.26,-9.11 0,-5.39 -4.16,-8.62 -11.26,-8.62l-9.1 0 0 17.74 9.1 0zm48.91 -62.78l0 0 29.3 0 0 83.45 -29.3 0 0 -83.45z"/>
  <path class="fil0" d="M239.17 730.65c0,-23.59 18.36,-43.49 44.74,-43.49 17.11,0 28.53,7.41 35.63,18.65l-19.6 14.2c-4.01,-5.57 -8.8,-8.18 -15.1,-8.18 -10.65,0 -17.13,8.34 -17.13,18.82 0,10.79 6.78,18.97 16.66,18.97 6.95,0 11.11,-3.4 15.72,-8.79l19.91 14.36c-7.71,11.41 -18.82,19.13 -37.17,19.13 -25.15,0 -43.66,-19.75 -43.66,-43.66z"/>
  <path class="fil0" d="M323.86 730.65c0,-23.76 19.45,-43.66 46.28,-43.66 26.68,0 45.98,19.6 45.98,43.66 0,23.76 -19.45,43.66 -46.28,43.66 -26.7,0 -45.98,-19.6 -45.98,-43.66zm63.72 0l0 0c0,-10.18 -7.41,-18.82 -17.74,-18.82 -10.65,0 -17.43,8.49 -17.43,18.82 0,10.18 7.41,18.82 17.74,18.82 10.65,0 17.43,-8.48 17.43,-18.82z"/>
  <polygon class="fil0" points="428.47,688.86 457.78,688.86 457.78,719.85 480.46,688.86 513.62,688.86 485.09,723.09 514.39,772.3 482.16,772.3 466.27,745.62 457.78,755.8 457.78,772.3 428.47,772.3 "/>
  <path class="fil0" d="M513.47 730.65c0,-23.76 19.45,-43.66 46.28,-43.66 26.68,0 45.98,19.6 45.98,43.66 0,23.76 -19.45,43.66 -46.28,43.66 -26.7,0 -45.98,-19.6 -45.98,-43.66zm63.72 0l0 0c0,-10.18 -7.41,-18.82 -17.74,-18.82 -10.65,0 -17.43,8.49 -17.43,18.82 0,10.18 7.41,18.82 17.74,18.82 10.65,0 17.43,-8.48 17.43,-18.82z"/>
  <path class="fil0" d="M657.27 751.63l21.75 -15.44c6.17,6.95 13.43,11.74 23.91,11.74 12.5,0 21.59,-8.17 24.99,-19.58l-35.32 0 0 -21.16 35 0c-3.7,-10.64 -12.63,-18.34 -24.67,-18.34 -9.71,0 -17.43,4.01 -23.45,10.8l-20.19 -17.28c9.4,-11.42 22.66,-20.21 43.34,-20.21 32.7,0 56.92,24.67 56.92,56.14 0,32.55 -24.84,56.16 -55.68,56.16 -23,0 -36.56,-9.57 -46.59,-22.83z"/>
  <path class="fil0" d="M820.18 768.44c-3.55,2.32 -9.57,5.24 -16.2,5.24 -19.75,0 -33.79,-16.05 -33.79,-43.49 0,-26.7 14.03,-42.73 33.94,-42.73 6.63,0 12.5,3.23 16.05,6.02l0 -29.15 29.31 0 0 29.15c3.4,-2.79 9.27,-6.02 16.05,-6.02 19.88,0 33.94,16.03 33.94,43.03 0,27.14 -14.05,43.19 -33.79,43.19 -6.8,0 -12.8,-2.92 -16.2,-5.24l0 28.53 -29.31 0 0 -28.53zm0 -19.9l0 0 0 -35.78c-2.16,-1.08 -4.63,-1.69 -7.1,-1.69 -9.55,0 -14.03,8.32 -14.03,19.58 0,11.26 4.48,19.45 14.03,19.45 2.47,0 4.94,-0.47 7.1,-1.56zm50.44 -18.2l0 0c0,-10.96 -4.48,-19.27 -14.04,-19.27 -2.62,0 -4.94,0.61 -7.1,1.69l0 35.78c2.16,1.08 4.48,1.56 7.1,1.56 9.56,0 14.04,-8.19 14.04,-19.75z"/>
  <path class="fil0" d="M958.73 768.44c-3.55,2.32 -9.57,5.24 -16.2,5.24 -19.75,0 -33.78,-16.05 -33.78,-43.49 0,-26.7 14.03,-42.73 33.94,-42.73 6.63,0 12.5,3.23 16.05,6.02l0 -29.15 29.3 0 0 29.15c3.4,-2.79 9.27,-6.02 16.05,-6.02 19.89,0 33.94,16.03 33.94,43.03 0,27.14 -14.05,43.19 -33.78,43.19 -6.8,0 -12.8,-2.92 -16.2,-5.24l0 28.53 -29.3 0 0 -28.53zm0 -19.9l0 0 0 -35.78c-2.17,-1.08 -4.64,-1.69 -7.1,-1.69 -9.55,0 -14.03,8.32 -14.03,19.58 0,11.26 4.48,19.45 14.03,19.45 2.47,0 4.94,-0.47 7.1,-1.56zm50.44 -18.2l0 0c0,-10.96 -4.48,-19.27 -14.03,-19.27 -2.62,0 -4.94,0.61 -7.1,1.69l0 35.78c2.17,1.08 4.48,1.56 7.1,1.56 9.55,0 14.03,-8.19 14.03,-19.75z"/>
  <path class="fil0" d="M1047.13 730.65c0,-24.36 17.43,-43.64 42.1,-43.64 28.85,0 42.12,21.14 42.12,45.66 0,1.85 0,4.01 -0.15,6.02l-55.85 0c2.32,9.1 8.96,13.71 18.06,13.71 6.93,0 12.48,-2.62 18.52,-8.47l16.2 13.43c-8.03,10.16 -19.6,16.96 -36.27,16.96 -26.21,0 -44.73,-17.43 -44.73,-43.66zm56.77 -6.93l0 0c-1.08,-9.27 -6.48,-15.12 -14.49,-15.12 -7.71,0 -12.97,6 -14.51,15.12l29 0z"/>
  <polygon class="fil0" points="1143.87,688.86 1173.17,688.86 1173.17,719.85 1195.84,688.86 1229,688.86 1200.48,723.09 1229.78,772.3 1197.55,772.3 1181.66,745.62 1173.17,755.8 1173.17,772.3 1143.87,772.3 "/>
  <polygon class="fil0" points="1254.94,712.45 1230.57,712.45 1230.57,688.86 1308.62,688.86 1308.62,712.45 1284.24,712.45 1284.24,772.31 1254.94,772.31 "/>
  <polygon class="fil0" points="1318.03,688.86 1346.41,688.86 1346.41,730.65 1374.19,688.86 1401.18,688.86 1401.18,772.3 1372.79,772.3 1372.79,730.5 1345.02,772.3 1318.03,772.3 "/>
  <path class="fil0" d="M1416.93 688.86l49.51 0c10.48,0 17.89,2.62 22.83,7.56 3.4,3.23 5.39,7.71 5.39,13.57 0,9.72 -5.55,15.42 -12.95,18.67 10.18,3.4 15.89,9.1 15.89,20.66 0,14.36 -11.73,23 -31.64,23l-49.04 0 0 -83.45zm38.4 33.16l0 0c6.8,0 10.5,-2.94 10.5,-7.41 0,-4.16 -3.55,-7.08 -10.03,-7.08l-10.35 0 0 14.49 9.88 0zm2.16 31.32l0 0c6.93,0 10.79,-3.1 10.79,-7.87 0,-4.17 -3.54,-7.73 -11.11,-7.73l-11.72 0 0 15.59 12.04 0z"/>
  <polygon class="fil0" points="1510.88,688.86 1540.19,688.86 1540.19,718.48 1564.25,718.48 1564.25,688.86 1593.57,688.86 1593.57,772.3 1564.25,772.3 1564.25,742.07 1540.19,742.07 1540.19,772.3 1510.88,772.3 "/>
  <path class="fil0" d="M1609.32 688.86l29.31 0 0 26.22 14.18 0c19.75,0 34.41,9.55 34.41,28.38 0,18.06 -12.97,28.85 -33.17,28.85l-44.73 0 0 -83.45zm38.4 62.78l0 0c7.1,0 11.26,-3.09 11.26,-9.11 0,-5.39 -4.16,-8.62 -11.26,-8.62l-9.09 0 0 17.74 9.09 0zm48.91 -62.78l0 0 29.3 0 0 83.45 -29.3 0 0 -83.45z"/>
  <path class="fil0" d="M1738.29 730.65c0,-24.36 17.43,-43.64 42.1,-43.64 28.85,0 42.12,21.14 42.12,45.66 0,1.85 0,4.01 -0.15,6.02l-55.85 0c2.32,9.1 8.96,13.71 18.06,13.71 6.94,0 12.5,-2.62 18.52,-8.47l16.2 13.43c-8.03,10.16 -19.6,16.96 -36.27,16.96 -26.21,0 -44.73,-17.43 -44.73,-43.66zm56.77 -6.93l0 0c-1.08,-9.27 -6.48,-15.12 -14.49,-15.12 -7.71,0 -12.97,6 -14.51,15.12l29 0z"/>
  <polygon class="fil0" points="1879.46,664.32 1911.08,664.32 1936.83,706.13 1962.6,664.32 1994.22,664.32 1994.22,772.31 1964.44,772.31 1964.44,710.29 1936.83,752.56 1936.22,752.56 1908.76,710.61 1908.76,772.31 1879.46,772.31 "/>
  <path class="fil0" d="M2008.28 730.65c0,-24.36 17.43,-43.64 42.1,-43.64 28.85,0 42.12,21.14 42.12,45.66 0,1.85 0,4.01 -0.15,6.02l-55.85 0c2.32,9.1 8.96,13.71 18.06,13.71 6.94,0 12.5,-2.62 18.52,-8.47l16.2 13.43c-8.03,10.16 -19.6,16.96 -36.27,16.96 -26.21,0 -44.73,-17.43 -44.73,-43.66zm56.77 -6.93l0 0c-1.08,-9.27 -6.48,-15.12 -14.49,-15.12 -7.71,0 -12.97,6 -14.51,15.12l29 0z"/>
  <polygon class="fil0" points="2121.51,712.45 2097.14,712.45 2097.14,688.86 2175.2,688.86 2175.2,712.45 2150.81,712.45 2150.81,772.31 2121.51,772.31 "/>
  <path class="fil0" d="M2177.37 748.09c0,-17.28 13.1,-26.22 32.7,-26.22 7.71,0 15.27,1.54 20.04,3.25l0 -1.39c0,-8.64 -5.4,-13.58 -16.66,-13.58 -8.8,0 -15.57,1.69 -22.98,4.63l-6.02 -20.68c9.42,-3.85 19.45,-6.48 33.78,-6.48 14.96,0 25.15,3.55 31.77,10.18 6.34,6.17 8.96,14.81 8.96,26.53l0 47.97 -29 0 0 -8.64c-5.71,6.33 -13.57,10.48 -24.53,10.48 -15.9,0 -28.07,-9.09 -28.07,-26.06zm53.06 -6.02l0 0 0 -3.85c-2.94,-1.24 -7.1,-2.17 -11.42,-2.17 -8.49,0 -13.43,4.18 -13.43,10.66 0,5.7 4.31,9.1 10.35,9.1 8.47,0 14.49,-5.4 14.49,-13.73z"/>
  <path class="fil0" d="M2267.62 772.14l1.24 -22.67c3.23,0.47 4.01,0.47 4.78,0.47 5.24,0 10.94,-2.17 10.94,-45.05l0 -16.05 72.05 0 0 83.45 -29.33 0 0 -60.15 -15.42 0 0 2.15c0,50.46 -13.58,59.08 -31.31,59.08 -3.08,0 -9.4,-0.61 -12.96,-1.24z"/>
  <path class="fil0" d="M2366.05 772.14l1.24 -22.67c3.23,0.47 4.01,0.47 4.78,0.47 5.24,0 10.94,-2.17 10.94,-45.05l0 -16.05 72.05 0 0 83.45 -29.32 0 0 -60.15 -15.42 0 0 2.15c0,50.46 -13.58,59.08 -31.32,59.08 -3.08,0 -9.4,-0.61 -12.95,-1.24z"/>
  <path class="fil0" d="M2470.8 688.86l29.31 0 0 26.22 14.2 0c19.73,0 34.4,9.55 34.4,28.38 0,18.06 -12.96,28.85 -33.16,28.85l-44.75 0 0 -83.45zm38.42 62.78l0 0c7.08,0 11.25,-3.09 11.25,-9.11 0,-5.39 -4.16,-8.62 -11.25,-8.62l-9.11 0 0 17.74 9.11 0zm48.89 -62.78l0 0 29.31 0 0 83.45 -29.31 0 0 -83.45z"/>
 </g>
</svg>
